<mxfile host="app.diagrams.net" agent="Mozilla/5.0 (X11; Linux x86_64) AppleWebKit/537.36 (KHTML, like Gecko) Chrome/136.0.0.0 Safari/537.36" version="27.0.8">
  <diagram name="Pagina-1" id="pwkVNHst10QY4vbUVxmM">
    <mxGraphModel dx="1553" dy="953" grid="1" gridSize="10" guides="1" tooltips="1" connect="1" arrows="1" fold="1" page="1" pageScale="1" pageWidth="625" pageHeight="570" math="0" shadow="0">
      <root>
        <mxCell id="0" />
        <mxCell id="1" parent="0" />
        <mxCell id="b-oDMPMdgRTYCBUJbH5Y-49" value="" style="group;aspect=fixed;" parent="1" vertex="1" connectable="0">
          <mxGeometry width="625.0000000000005" height="570" as="geometry" />
        </mxCell>
        <mxCell id="b-oDMPMdgRTYCBUJbH5Y-44" value="" style="whiteSpace=wrap;html=1;container=0;" parent="b-oDMPMdgRTYCBUJbH5Y-49" vertex="1">
          <mxGeometry width="625.0000000000005" height="570" as="geometry" />
        </mxCell>
        <mxCell id="b-oDMPMdgRTYCBUJbH5Y-28" value="" style="rounded=0;whiteSpace=wrap;html=1;fillColor=#eeeeee;strokeColor=#36393d;strokeWidth=2;container=0;" parent="b-oDMPMdgRTYCBUJbH5Y-49" vertex="1">
          <mxGeometry x="80.64516129032265" y="60" width="453.62903225806474" height="470" as="geometry" />
        </mxCell>
        <mxCell id="b-oDMPMdgRTYCBUJbH5Y-11" value="&lt;div&gt;&lt;b&gt;&lt;br&gt;&lt;/b&gt;&lt;/div&gt;&lt;div&gt;&lt;b&gt;&lt;br&gt;&lt;/b&gt;&lt;/div&gt;&lt;div&gt;&lt;b&gt;&lt;br&gt;&lt;/b&gt;&lt;/div&gt;&lt;div&gt;&lt;b&gt;Lambda&lt;/b&gt;&lt;/div&gt;" style="rounded=1;whiteSpace=wrap;html=1;fillColor=#d5e8d4;strokeColor=light-dark(#000000, #996500);strokeWidth=2;container=0;" parent="b-oDMPMdgRTYCBUJbH5Y-49" vertex="1">
          <mxGeometry x="201.61290322580646" y="330" width="60.483870967741964" height="90" as="geometry" />
        </mxCell>
        <mxCell id="b-oDMPMdgRTYCBUJbH5Y-12" value="&lt;div&gt;&lt;b&gt;&lt;br&gt;&lt;/b&gt;&lt;/div&gt;&lt;div&gt;&lt;b&gt;&lt;br&gt;&lt;/b&gt;&lt;/div&gt;&lt;div&gt;&lt;b&gt;&lt;br&gt;&lt;/b&gt;&lt;/div&gt;&lt;div&gt;&lt;b&gt;Lam&lt;/b&gt;&lt;b style=&quot;background-color: transparent; color: light-dark(rgb(0, 0, 0), rgb(255, 255, 255));&quot;&gt;bda&lt;/b&gt;&lt;/div&gt;" style="rounded=1;whiteSpace=wrap;html=1;fillColor=#d5e8d4;strokeColor=light-dark(#000000, #996500);strokeWidth=2;container=0;" parent="b-oDMPMdgRTYCBUJbH5Y-49" vertex="1">
          <mxGeometry x="282.2580645161292" y="330" width="60.483870967741964" height="90" as="geometry" />
        </mxCell>
        <mxCell id="b-oDMPMdgRTYCBUJbH5Y-2" value="&lt;b&gt;API Gateway&lt;/b&gt;" style="rounded=1;whiteSpace=wrap;html=1;fillColor=#ffe6cc;strokeColor=light-dark(#000000, #996500);strokeWidth=2;container=0;" parent="b-oDMPMdgRTYCBUJbH5Y-49" vertex="1">
          <mxGeometry x="171.37096774193552" y="110.00000000000001" width="120.96774193548393" height="40" as="geometry" />
        </mxCell>
        <mxCell id="b-oDMPMdgRTYCBUJbH5Y-3" value="&lt;b&gt;Runtime Manager&lt;/b&gt;" style="rounded=1;whiteSpace=wrap;html=1;fillColor=#dae8fc;strokeColor=light-dark(#000000, #996500);strokeWidth=2;container=0;" parent="b-oDMPMdgRTYCBUJbH5Y-49" vertex="1">
          <mxGeometry x="171.37096774193552" y="210" width="120.96774193548393" height="40" as="geometry" />
        </mxCell>
        <mxCell id="b-oDMPMdgRTYCBUJbH5Y-4" value="&lt;b&gt;Lambda Registry&lt;/b&gt;" style="rounded=1;whiteSpace=wrap;html=1;fillColor=#e1d5e7;strokeColor=light-dark(#000000, #996500);strokeWidth=2;container=0;" parent="b-oDMPMdgRTYCBUJbH5Y-49" vertex="1">
          <mxGeometry x="393.1451612903228" y="210" width="120.96774193548393" height="40" as="geometry" />
        </mxCell>
        <mxCell id="b-oDMPMdgRTYCBUJbH5Y-10" value="&lt;div&gt;&lt;b&gt;&lt;br&gt;&lt;/b&gt;&lt;/div&gt;&lt;div&gt;&lt;b&gt;&lt;br&gt;&lt;/b&gt;&lt;/div&gt;&lt;div&gt;&lt;b&gt;&lt;br&gt;&lt;/b&gt;&lt;/div&gt;&lt;div&gt;&lt;b&gt;Lambda&lt;/b&gt;&lt;/div&gt;" style="rounded=1;whiteSpace=wrap;html=1;fillColor=#d5e8d4;strokeColor=light-dark(#000000, #996500);strokeWidth=2;container=0;" parent="b-oDMPMdgRTYCBUJbH5Y-49" vertex="1">
          <mxGeometry x="120.96774193548396" y="330" width="60.483870967741964" height="90" as="geometry" />
        </mxCell>
        <mxCell id="b-oDMPMdgRTYCBUJbH5Y-6" value="" style="image;aspect=fixed;html=1;points=[];align=center;fontSize=12;image=img/lib/azure2/compute/Azure_Compute_Galleries.svg;container=0;" parent="b-oDMPMdgRTYCBUJbH5Y-49" vertex="1">
          <mxGeometry x="131.0483870967743" y="340" width="39.99999999999999" height="39.99999999999999" as="geometry" />
        </mxCell>
        <mxCell id="b-oDMPMdgRTYCBUJbH5Y-7" value="" style="image;aspect=fixed;html=1;points=[];align=center;fontSize=12;image=img/lib/azure2/compute/Azure_Compute_Galleries.svg;container=0;" parent="b-oDMPMdgRTYCBUJbH5Y-49" vertex="1">
          <mxGeometry x="211.69354838709685" y="340" width="39.99999999999999" height="39.99999999999999" as="geometry" />
        </mxCell>
        <mxCell id="b-oDMPMdgRTYCBUJbH5Y-8" value="" style="image;aspect=fixed;html=1;points=[];align=center;fontSize=12;image=img/lib/azure2/compute/Azure_Compute_Galleries.svg;container=0;" parent="b-oDMPMdgRTYCBUJbH5Y-49" vertex="1">
          <mxGeometry x="292.3387096774196" y="340" width="39.99999999999999" height="39.99999999999999" as="geometry" />
        </mxCell>
        <mxCell id="b-oDMPMdgRTYCBUJbH5Y-13" value="" style="endArrow=classic;startArrow=classic;html=1;rounded=0;entryX=0.5;entryY=1;entryDx=0;entryDy=0;exitX=0.5;exitY=0;exitDx=0;exitDy=0;strokeWidth=2;" parent="b-oDMPMdgRTYCBUJbH5Y-49" source="b-oDMPMdgRTYCBUJbH5Y-3" target="b-oDMPMdgRTYCBUJbH5Y-2" edge="1">
          <mxGeometry width="50" height="50" relative="1" as="geometry">
            <mxPoint x="211.69354838709685" y="220.00000000000003" as="sourcePoint" />
            <mxPoint x="262.0967741935486" y="170" as="targetPoint" />
          </mxGeometry>
        </mxCell>
        <mxCell id="b-oDMPMdgRTYCBUJbH5Y-14" value="" style="endArrow=classic;startArrow=classic;html=1;rounded=0;entryX=0.5;entryY=1;entryDx=0;entryDy=0;strokeWidth=2;exitX=0.5;exitY=0;exitDx=0;exitDy=0;" parent="b-oDMPMdgRTYCBUJbH5Y-49" source="b-oDMPMdgRTYCBUJbH5Y-10" target="b-oDMPMdgRTYCBUJbH5Y-3" edge="1">
          <mxGeometry width="50" height="50" relative="1" as="geometry">
            <mxPoint x="231.85483870967764" y="300" as="sourcePoint" />
            <mxPoint x="241.93548387096791" y="70.00000000000001" as="targetPoint" />
            <Array as="points">
              <mxPoint x="151.2096774193549" y="300" />
              <mxPoint x="231.85483870967764" y="300" />
            </Array>
          </mxGeometry>
        </mxCell>
        <mxCell id="b-oDMPMdgRTYCBUJbH5Y-15" value="" style="endArrow=classic;startArrow=classic;html=1;rounded=0;entryX=0.5;entryY=1;entryDx=0;entryDy=0;strokeWidth=2;" parent="b-oDMPMdgRTYCBUJbH5Y-49" target="b-oDMPMdgRTYCBUJbH5Y-3" edge="1">
          <mxGeometry width="50" height="50" relative="1" as="geometry">
            <mxPoint x="231.85483870967764" y="330" as="sourcePoint" />
            <mxPoint x="241.93548387096791" y="260" as="targetPoint" />
            <Array as="points">
              <mxPoint x="231.85483870967764" y="330" />
              <mxPoint x="231.85483870967764" y="300" />
            </Array>
          </mxGeometry>
        </mxCell>
        <mxCell id="b-oDMPMdgRTYCBUJbH5Y-16" value="" style="endArrow=classic;startArrow=classic;html=1;rounded=0;entryX=0.5;entryY=1;entryDx=0;entryDy=0;strokeWidth=2;exitX=0.5;exitY=0;exitDx=0;exitDy=0;" parent="b-oDMPMdgRTYCBUJbH5Y-49" source="b-oDMPMdgRTYCBUJbH5Y-12" target="b-oDMPMdgRTYCBUJbH5Y-3" edge="1">
          <mxGeometry width="50" height="50" relative="1" as="geometry">
            <mxPoint x="241.93548387096791" y="340" as="sourcePoint" />
            <mxPoint x="241.93548387096791" y="260" as="targetPoint" />
            <Array as="points">
              <mxPoint x="312.5000000000002" y="330" />
              <mxPoint x="312.5000000000002" y="300" />
              <mxPoint x="272.17741935483883" y="300" />
              <mxPoint x="231.85483870967764" y="300" />
            </Array>
          </mxGeometry>
        </mxCell>
        <mxCell id="b-oDMPMdgRTYCBUJbH5Y-17" value="" style="endArrow=classic;startArrow=classic;html=1;rounded=0;entryX=0;entryY=0.5;entryDx=0;entryDy=0;exitX=1;exitY=0.5;exitDx=0;exitDy=0;strokeWidth=2;" parent="b-oDMPMdgRTYCBUJbH5Y-49" source="b-oDMPMdgRTYCBUJbH5Y-3" target="b-oDMPMdgRTYCBUJbH5Y-4" edge="1">
          <mxGeometry width="50" height="50" relative="1" as="geometry">
            <mxPoint x="241.93548387096791" y="220.00000000000003" as="sourcePoint" />
            <mxPoint x="241.93548387096791" y="70.00000000000001" as="targetPoint" />
          </mxGeometry>
        </mxCell>
        <mxCell id="b-oDMPMdgRTYCBUJbH5Y-20" value="" style="endArrow=classic;startArrow=classic;html=1;rounded=0;exitX=0.5;exitY=1;exitDx=0;exitDy=0;strokeWidth=2;entryX=0.5;entryY=0;entryDx=0;entryDy=0;entryPerimeter=0;" parent="b-oDMPMdgRTYCBUJbH5Y-49" source="b-oDMPMdgRTYCBUJbH5Y-4" target="b-oDMPMdgRTYCBUJbH5Y-19" edge="1">
          <mxGeometry width="50" height="50" relative="1" as="geometry">
            <mxPoint x="453.6290322580647" y="210" as="sourcePoint" />
            <mxPoint x="453.6290322580647" y="90" as="targetPoint" />
          </mxGeometry>
        </mxCell>
        <mxCell id="b-oDMPMdgRTYCBUJbH5Y-19" value="" style="image;aspect=fixed;html=1;points=[];align=center;fontSize=12;image=img/lib/azure2/databases/SQL_Database.svg;container=0;" parent="b-oDMPMdgRTYCBUJbH5Y-49" vertex="1">
          <mxGeometry x="429.4354838709681" y="340" width="48" height="63.999999999999986" as="geometry" />
        </mxCell>
        <mxCell id="b-oDMPMdgRTYCBUJbH5Y-22" value="&lt;b&gt;Network Interface&lt;/b&gt;" style="rounded=1;whiteSpace=wrap;html=1;fillColor=#f8cecc;strokeColor=light-dark(#000000, #996500);strokeWidth=2;container=0;" parent="b-oDMPMdgRTYCBUJbH5Y-49" vertex="1">
          <mxGeometry x="136.0887096774194" y="470" width="191.5322580645162" height="40" as="geometry" />
        </mxCell>
        <mxCell id="b-oDMPMdgRTYCBUJbH5Y-24" value="" style="endArrow=classic;startArrow=classic;html=1;rounded=0;exitX=0.5;exitY=1;exitDx=0;exitDy=0;strokeWidth=2;entryX=0.5;entryY=0;entryDx=0;entryDy=0;" parent="b-oDMPMdgRTYCBUJbH5Y-49" source="b-oDMPMdgRTYCBUJbH5Y-10" target="b-oDMPMdgRTYCBUJbH5Y-22" edge="1">
          <mxGeometry width="50" height="50" relative="1" as="geometry">
            <mxPoint x="463.7096774193553" y="260" as="sourcePoint" />
            <mxPoint x="463.7096774193553" y="350" as="targetPoint" />
            <Array as="points">
              <mxPoint x="151.2096774193549" y="450" />
              <mxPoint x="231.85483870967764" y="450" />
            </Array>
          </mxGeometry>
        </mxCell>
        <mxCell id="b-oDMPMdgRTYCBUJbH5Y-25" value="" style="endArrow=classic;startArrow=classic;html=1;rounded=0;exitX=0.5;exitY=1;exitDx=0;exitDy=0;strokeWidth=2;" parent="b-oDMPMdgRTYCBUJbH5Y-49" source="b-oDMPMdgRTYCBUJbH5Y-11" edge="1">
          <mxGeometry width="50" height="50" relative="1" as="geometry">
            <mxPoint x="161.2903225806453" y="430" as="sourcePoint" />
            <mxPoint x="231.85483870967764" y="470" as="targetPoint" />
            <Array as="points">
              <mxPoint x="231.85483870967764" y="440.00000000000006" />
            </Array>
          </mxGeometry>
        </mxCell>
        <mxCell id="b-oDMPMdgRTYCBUJbH5Y-26" value="" style="endArrow=classic;startArrow=classic;html=1;rounded=0;exitX=0.5;exitY=1;exitDx=0;exitDy=0;strokeWidth=2;" parent="b-oDMPMdgRTYCBUJbH5Y-49" source="b-oDMPMdgRTYCBUJbH5Y-12" edge="1">
          <mxGeometry width="50" height="50" relative="1" as="geometry">
            <mxPoint x="241.93548387096791" y="430" as="sourcePoint" />
            <mxPoint x="231.85483870967764" y="470" as="targetPoint" />
            <Array as="points">
              <mxPoint x="312.5000000000002" y="450" />
              <mxPoint x="231.85483870967764" y="450" />
            </Array>
          </mxGeometry>
        </mxCell>
        <mxCell id="b-oDMPMdgRTYCBUJbH5Y-27" value="&lt;b&gt;Bridge&lt;/b&gt;" style="rounded=1;whiteSpace=wrap;html=1;fillColor=#f8cecc;strokeColor=light-dark(#000000, #996500);strokeWidth=2;container=0;" parent="b-oDMPMdgRTYCBUJbH5Y-49" vertex="1">
          <mxGeometry x="408.2661290322582" y="470" width="90.72580645161295" height="40" as="geometry" />
        </mxCell>
        <mxCell id="b-oDMPMdgRTYCBUJbH5Y-29" value="&lt;font style=&quot;font-size: 18px;&quot;&gt;Limes&lt;/font&gt;&lt;div&gt;&lt;font style=&quot;font-size: 18px;&quot;&gt;Architecture&lt;/font&gt;&lt;/div&gt;" style="text;html=1;align=center;verticalAlign=middle;whiteSpace=wrap;rounded=0;container=0;" parent="b-oDMPMdgRTYCBUJbH5Y-49" vertex="1">
          <mxGeometry x="223.61" y="20" width="167.7" height="30" as="geometry" />
        </mxCell>
        <mxCell id="b-oDMPMdgRTYCBUJbH5Y-30" value="" style="endArrow=classic;startArrow=classic;html=1;rounded=0;exitX=0;exitY=0.5;exitDx=0;exitDy=0;strokeWidth=2;entryX=1;entryY=0.5;entryDx=0;entryDy=0;" parent="b-oDMPMdgRTYCBUJbH5Y-49" source="b-oDMPMdgRTYCBUJbH5Y-27" target="b-oDMPMdgRTYCBUJbH5Y-22" edge="1">
          <mxGeometry width="50" height="50" relative="1" as="geometry">
            <mxPoint x="322.58064516129053" y="430" as="sourcePoint" />
            <mxPoint x="241.93548387096791" y="480" as="targetPoint" />
            <Array as="points">
              <mxPoint x="372.9838709677422" y="490.00000000000006" />
            </Array>
          </mxGeometry>
        </mxCell>
        <mxCell id="b-oDMPMdgRTYCBUJbH5Y-31" value="&lt;b&gt;&lt;font style=&quot;font-size: 14px;&quot;&gt;User Requests&lt;/font&gt;&lt;/b&gt;" style="text;html=1;align=center;verticalAlign=middle;whiteSpace=wrap;rounded=0;rotation=-90;container=0;" parent="b-oDMPMdgRTYCBUJbH5Y-49" vertex="1">
          <mxGeometry x="-30.241935483870975" y="115.00000000000001" width="110.88709677419358" height="30" as="geometry" />
        </mxCell>
        <mxCell id="b-oDMPMdgRTYCBUJbH5Y-32" value="&lt;b&gt;&lt;font style=&quot;font-size: 14px;&quot;&gt;External Network&lt;/font&gt;&lt;/b&gt;" style="text;html=1;align=center;verticalAlign=middle;whiteSpace=wrap;rounded=0;rotation=90;container=0;" parent="b-oDMPMdgRTYCBUJbH5Y-49" vertex="1">
          <mxGeometry x="534.2741935483873" y="475" width="126.51209677419364" height="30" as="geometry" />
        </mxCell>
        <mxCell id="b-oDMPMdgRTYCBUJbH5Y-37" value="&lt;b&gt;DataBase&lt;/b&gt;" style="text;html=1;align=center;verticalAlign=middle;whiteSpace=wrap;rounded=0;container=0;" parent="b-oDMPMdgRTYCBUJbH5Y-49" vertex="1">
          <mxGeometry x="423.3870967741937" y="405" width="60.483870967741964" height="30" as="geometry" />
        </mxCell>
        <mxCell id="b-oDMPMdgRTYCBUJbH5Y-42" value="" style="endArrow=classic;startArrow=classic;html=1;rounded=0;exitX=0.5;exitY=1;exitDx=0;exitDy=0;strokeWidth=2;entryX=1;entryY=0.5;entryDx=0;entryDy=0;" parent="b-oDMPMdgRTYCBUJbH5Y-49" source="b-oDMPMdgRTYCBUJbH5Y-32" target="b-oDMPMdgRTYCBUJbH5Y-27" edge="1">
          <mxGeometry width="50" height="50" relative="1" as="geometry">
            <mxPoint x="463.7096774193553" y="260" as="sourcePoint" />
            <mxPoint x="463.7096774193553" y="350" as="targetPoint" />
          </mxGeometry>
        </mxCell>
        <mxCell id="b-oDMPMdgRTYCBUJbH5Y-43" value="" style="endArrow=classic;startArrow=classic;html=1;rounded=0;exitX=0;exitY=0.5;exitDx=0;exitDy=0;strokeWidth=2;entryX=0.5;entryY=1;entryDx=0;entryDy=0;" parent="b-oDMPMdgRTYCBUJbH5Y-49" source="b-oDMPMdgRTYCBUJbH5Y-2" target="b-oDMPMdgRTYCBUJbH5Y-31" edge="1">
          <mxGeometry width="50" height="50" relative="1" as="geometry">
            <mxPoint x="53.42741935483875" y="240" as="sourcePoint" />
            <mxPoint x="-30.241935483870975" y="240" as="targetPoint" />
          </mxGeometry>
        </mxCell>
      </root>
    </mxGraphModel>
  </diagram>
</mxfile>
